<svg width="287" height="55" fill="none" xmlns="http://www.w3.org/2000/svg"><g clip-path="url(#clip0)" fill="#fff"><path d="M32.169 24.75l1.34 5.902h9.73l3.314-5.5-2.68 14.421h12.975L64.04.536H50.431l-9.519 15.562L37.175.536H23.707l-7.263 39.037H29.42l2.75-14.823zm66.352 14.823h16.077l7.404-8.92 5.006 8.92h13.821l-10.718-18.915L146.893.536h-16.077l-7.122 8.586L118.97.536h-13.821l10.366 18.513-12.058 14.555-4.936 5.97zm-25.032 0l4.02-8.92h6.486l.776 8.92h13.186l-.917-5.902L91.822.604H80.54l-20.448 38.97h13.397zm6.98-15.963l2.68-5.836.423 5.836H80.47zm77.001 20.256l5.218-27.97h-12.904L142.521 54.8h29.193l2.044-10.933H157.47zm25.949-28.036l-7.263 38.902h12.974l7.263-38.903h-12.974zm39.557 0l-3.032 16.5-9.307-16.5h-9.872l-7.263 38.902h12.974l3.032-16.366 9.167 16.366h10.013l7.263-38.903h-12.975zm43.507 11l1.974-10.934h-28.135L233.06 54.8h28.205l1.974-10.933h-15.231l.635-3.69h10.859l1.974-10.328h-10.859l.494-3.019h15.372zM15.598 43.866l-4.02 10.933h126.43l2.045-10.933H15.598zM150.56 11.604L152.605.67h121.141l-4.442 10.933H150.56zM282.278 2.08c.564 0 1.128.133 1.692.335.494.2.917.47 1.41.872.423.402.705.804.917 1.341a3.88 3.88 0 01.353 1.61c0 .738-.141 1.408-.565 2.012-.423.604-.916 1.14-1.551 1.476-.705.402-1.41.536-2.115.536-.776 0-1.481-.134-2.116-.536-.705-.403-1.198-.872-1.551-1.476-.423-.604-.564-1.342-.564-2.012 0-.671.141-1.409.564-2.012.423-.604.917-1.14 1.551-1.476.494-.537 1.199-.67 1.975-.67zm0 .804c-.635 0-1.199.134-1.763.403a3.18 3.18 0 00-1.199 1.14c-.352.47-.423 1.073-.423 1.61 0 .536.141 1.14.423 1.61.353.469.705.871 1.269 1.14.494.268 1.129.402 1.763.402.635 0 1.199-.134 1.763-.402a3.18 3.18 0 001.199-1.14c.282-.47.423-1.074.423-1.61 0-.537-.141-1.14-.423-1.61a3.18 3.18 0 00-1.199-1.14c-.635-.269-1.199-.403-1.833-.403zm-.987 5.366h-.917V3.957h2.115c.353 0 .635.067.846.134.212.135.424.269.494.403.141.134.141.402.141.604 0 .335-.141.603-.353.804-.211.202-.493.403-.916.403.211.067.352.134.493.335.141.134.282.403.494.67l.564.873h-1.128l-.423-.67c-.141-.336-.353-.537-.423-.672-.141-.134-.212-.268-.423-.335-.141-.067-.282-.134-.423-.134h-.212V8.25h.071zm0-3.555v1.14h.705c.352 0 .634-.067.775-.134.141-.134.282-.268.282-.47 0-.133-.07-.335-.211-.402-.141-.134-.423-.134-.705-.134h-.846z"/></g><defs><clipPath id="clip0"><path fill="#fff" d="M0 0h286.579v55H0z"/></clipPath></defs></svg>