<svg width="287" height="55" viewBox="0 0 287 55" fill="none" xmlns="http://www.w3.org/2000/svg">
<g clip-path="url(#clip0)">
<path d="M32.1687 24.7499L33.5084 30.6523H43.2392L46.5533 25.1523L43.8738 39.5731H56.8482L64.0405 0.536499H50.4315L40.9123 16.0975L37.1751 0.536499H23.7072L16.4443 39.5731H29.4187L32.1687 24.7499Z" fill="white"/>
<path d="M98.5212 39.5731H100.214H104.374H114.598L122.002 30.6523L127.008 39.5731H140.829L130.111 20.6584L146.893 0.536499H130.816L123.694 9.12186L118.97 0.536499H105.149L115.515 19.0487L103.457 33.6036L98.5212 39.5731Z" fill="white"/>
<path d="M73.489 39.5731L77.5082 30.6524H83.9954L84.771 39.5731H93.7967H97.9569L97.0403 33.6707L91.8223 0.603638H80.5403L60.0916 39.5731H73.489ZM80.4698 23.6097L83.1492 17.7744L83.5723 23.6097H80.4698Z" fill="white"/>
<path d="M157.47 43.8659L162.688 15.8964H149.784L142.521 54.7988H171.714L173.758 43.8659H157.47Z" fill="white"/>
<path d="M183.419 15.8292L176.156 54.7317H189.13L196.393 15.8292H183.419Z" fill="white"/>
<path d="M222.976 15.8292L219.944 32.3292L210.637 15.8292H200.765L193.502 54.7317H206.476L209.508 38.3658L218.675 54.7317H228.688L235.951 15.8292H222.976Z" fill="white"/>
<path d="M266.483 26.8293L268.457 15.8964H240.322L233.06 54.7988H261.265L263.239 43.8659H248.008L248.643 40.1768H259.502L261.476 29.8476H250.617L251.111 26.8293H266.483Z" fill="white"/>
<path d="M15.5981 43.8658L11.5789 54.7988H138.008L140.053 43.8658H15.5981Z" fill="white"/>
<path d="M150.56 11.6036L152.605 0.670654H273.746L269.304 11.6036H150.56Z" fill="white"/>
<path d="M282.278 2.07922C282.842 2.07922 283.406 2.21337 283.97 2.41459C284.464 2.61581 284.887 2.8841 285.38 3.28654C285.803 3.68898 286.085 4.09142 286.297 4.628C286.509 5.09752 286.65 5.6341 286.65 6.23776C286.65 6.97556 286.509 7.6463 286.085 8.24995C285.662 8.85361 285.169 9.3902 284.534 9.72556C283.829 10.128 283.124 10.2621 282.419 10.2621C281.643 10.2621 280.938 10.128 280.303 9.72556C279.598 9.32312 279.105 8.85361 278.752 8.24995C278.329 7.6463 278.188 6.90849 278.188 6.23776C278.188 5.56703 278.329 4.82922 278.752 4.22556C279.175 3.62191 279.669 3.08532 280.303 2.74996C280.797 2.21337 281.502 2.07922 282.278 2.07922ZM282.278 2.8841C281.643 2.8841 281.079 3.01825 280.515 3.28654C280.021 3.55483 279.598 3.95727 279.316 4.42678C278.964 4.8963 278.893 5.49995 278.893 6.03654C278.893 6.57313 279.034 7.17678 279.316 7.6463C279.669 8.11581 280.021 8.51825 280.585 8.78654C281.079 9.05483 281.714 9.18898 282.348 9.18898C282.983 9.18898 283.547 9.05483 284.111 8.78654C284.605 8.51825 285.028 8.11581 285.31 7.6463C285.592 7.17678 285.733 6.57313 285.733 6.03654C285.733 5.49995 285.592 4.8963 285.31 4.42678C285.028 3.95727 284.605 3.55483 284.111 3.28654C283.476 3.01825 282.912 2.8841 282.278 2.8841ZM281.291 8.24995H280.374V3.95727H282.489C282.842 3.95727 283.124 4.02435 283.335 4.09142C283.547 4.22556 283.759 4.35971 283.829 4.49386C283.97 4.628 283.97 4.8963 283.97 5.09752C283.97 5.43288 283.829 5.70117 283.617 5.90239C283.406 6.10361 283.124 6.30483 282.701 6.30483C282.912 6.37191 283.053 6.43898 283.194 6.6402C283.335 6.77434 283.476 7.04264 283.688 7.31093L284.252 8.18288H283.124L282.701 7.51215C282.56 7.17678 282.348 6.97556 282.278 6.84142C282.137 6.70727 282.066 6.57313 281.855 6.50605C281.714 6.43898 281.573 6.37191 281.432 6.37191H281.22V8.24995H281.291ZM281.291 4.69508V5.83532H281.996C282.348 5.83532 282.63 5.76825 282.771 5.70117C282.912 5.56703 283.053 5.43288 283.053 5.23166C283.053 5.09752 282.983 4.8963 282.842 4.82922C282.701 4.69508 282.419 4.69508 282.137 4.69508H281.291Z" fill="white"/>
</g>
<defs>
<clipPath id="clip0">
<rect width="286.579" height="55" fill="white"/>
</clipPath>
</defs>
</svg>
